<svg xmlns="http://www.w3.org/2000/svg" viewBox="0 0 64 64">
  <circle cx="32" cy="32" r="32" fill="#1a1a1a"/>
  <path d="M32 8C32 8 20 22 20 34c0 6.627 5.373 12 12 12s12-5.373 12-12c0-4-2-7-2-7s-1 4-4 6c0 0 2-6-6-16z" fill="#f37021"/>
  <path d="M32 28c0 0-6 6-6 12a6 6 0 0012 0c0-3-1.5-5-1.5-5s-.5 3-2.5 4c0 0 1-4-2-11z" fill="#ffd580"/>
  <!-- Wallet badge: card body + stripe + coin -->
  <rect x="37" y="43" width="22" height="15" rx="3" fill="#1a1a1a" stroke="#f37021" stroke-width="1.5"/>
  <rect x="37" y="47" width="22" height="4" fill="#f37021" opacity="0.9"/>
  <circle cx="55" cy="53" r="3.5" fill="#f37021"/>
  <rect x="40" y="52" width="9" height="2" rx="1" fill="#666"/>
</svg>